<?xml version="1.0" standalone="no"?><!DOCTYPE svg PUBLIC "-//W3C//DTD SVG 1.1//EN" "http://www.w3.org/Graphics/SVG/1.1/DTD/svg11.dtd"><svg t="1763001946370" class="icon" viewBox="0 0 1024 1024" version="1.1" xmlns="http://www.w3.org/2000/svg" p-id="2658" xmlns:xlink="http://www.w3.org/1999/xlink" width="200" height="200"><path d="M886.953261 163.500187c-4.309317-4.479983-8.405302-9.087966-12.842619-13.525283-4.39465-4.39465-9.002633-8.618634-13.653282-12.885285A507.859429 507.859429 0 0 0 512 0.002133a508.840759 508.840759 0 0 0-362.067976 149.930105C-45.30991 345.174172-49.491228 660.052991 137.089406 860.50024c4.223984 4.607983 8.405302 9.130632 12.799952 13.653282 4.437317 4.39465 8.959966 8.533301 13.525283 12.799952A508.584759 508.584759 0 0 0 512 1023.998293c136.78882 0 265.385671-53.205134 362.110642-149.844771 195.241935-195.241935 199.380586-510.120754 12.842619-710.653335z m-710.610669 12.842618A471.763564 471.763564 0 0 1 512 37.29266c120.532881 0 234.239122 44.714499 322.132125 126.207527l-42.709173 42.75184A411.561123 411.561123 0 0 0 512 97.793767a411.47579 411.47579 0 0 0-292.905568 121.343545A411.47579 411.47579 0 0 0 97.793553 512.000213c0 104.447608 38.399856 202.793906 108.45826 279.422952L163.457307 834.132339C-8.574048 648.149036-4.307397 356.992795 176.342592 176.342805z m588.712459 56.234456v0.085333l-43.306504 43.263838A313.428158 313.428158 0 0 0 512 195.798732 313.89749 313.89749 0 0 0 288.470172 288.427718 314.110822 314.110822 0 0 0 195.798519 512.000213a313.172159 313.172159 0 0 0 80.085033 209.620548l-43.263838 43.34917A374.185263 374.185263 0 0 1 135.126747 512.000213a374.185263 374.185263 0 0 1 110.420919-266.452334A374.22793 374.22793 0 0 1 512 135.12696c94.420979 0 183.508645 34.517204 253.055051 97.450301zM790.910954 512.000213c0 74.453054-29.055891 144.511458-81.749027 197.204594S586.495721 790.953834 512 790.953834a276.948295 276.948295 0 0 1-183.295313-69.162407l-0.042666-0.170666c-4.693316-4.010652-9.386631-8.021303-13.823948-12.415954a257.151036 257.151036 0 0 1-12.501287-13.909281A276.052298 276.052298 0 0 1 233.217045 512.000213c0-74.495721 28.970558-144.511458 81.663694-197.161927A276.820295 276.820295 0 0 1 512 233.174592c68.223744 0 132.479503 24.575908 183.252646 69.119741 4.735982 4.095985 9.557297 8.106636 13.909281 12.58662 4.437317 4.437317 8.533301 9.130632 12.58662 13.823948A276.564296 276.564296 0 0 1 790.910954 512.000213zM302.251453 748.116661h0.042667A313.556157 313.556157 0 0 0 512 828.287027a313.598824 313.598824 0 0 0 223.529828-92.756985A313.76949 313.76949 0 0 0 828.244147 512.000213a314.196155 314.196155 0 0 0-80.042366-209.748546l43.221171-43.178505A374.483929 374.483929 0 0 1 888.91592 512.000213a373.971931 373.971931 0 0 1-110.463586 266.495001A373.929264 373.929264 0 0 1 512 888.916133a374.697262 374.697262 0 0 1-253.012385-97.492968l43.263838-43.306504z m545.405955 99.54096A471.294233 471.294233 0 0 1 512 986.6651a471.123567 471.123567 0 0 1-322.174792-126.16486l42.837173-42.709173a411.305124 411.305124 0 0 0 279.422952 108.45826 411.262458 411.262458 0 0 0 292.905568-121.428878A411.390457 411.390457 0 0 0 926.29178 512.000213a411.305124 411.305124 0 0 0-108.500927-279.380285l42.709173-42.75184c171.988688 185.983303 167.892704 477.096878-12.842618 657.789533z" p-id="2659" fill="#1296db"></path></svg>